<svg xmlns="http://www.w3.org/2000/svg" viewBox="-5 -10 110 110">
  <path d="m47.91 48s-16.66-0.75-29.84-13.16c0 0.058594 2.2188 24.551 35.441 28.262-8.4414 1.7578-17.234 0.26563-24.621-4.1797l0.17188 0.30078c1.5508 2.6211 11.398 19 33.211 17.102 0 0-8.4297 3.8086-19.551-0.57812 8.4258 11.633 25.547 16.812 40.605 19.254 0.89453 0.14062 1.7891-0.26172 2.2734-1.0273 0.48438-0.76562 0.46875-1.7461-0.042968-2.4922-4.7109-6.7305-12.34-20.789-8.7305-37.68 1.2617-6.168-2.3359-12.293-8.3398-14.191-14.938-4.8477-40.047-15.348-54.488-34.609v3.2812c0.60156 6.9102 5.8516 29.41 33.91 39.719z" fill="#54e5d0"/>
</svg>
